<?xml version="1.0" encoding="iso-8859-1"?>
<!-- Generator: Adobe Illustrator 19.0.0, SVG Export Plug-In . SVG Version: 6.00 Build 0)  -->
<svg version="1.1" id="Layer_1" xmlns="http://www.w3.org/2000/svg" xmlns:xlink="http://www.w3.org/1999/xlink" x="0px" y="0px"
	 viewBox="0 0 512 512" style="enable-background:new 0 0 512 512;" xml:space="preserve">
<path style="fill:#CAEEC5;" d="M488.225,142.477v77.275c0,127.508-103.969,231.833-231.046,231.833S26.135,347.259,26.135,219.751
	v-77.275L488.225,142.477L488.225,142.477z"/>
<path style="fill:#CAA661;" d="M488.054,228.257c-4.502,123.607-106.634,223.327-230.872,223.327
	c-127.077,0-231.046-104.325-231.046-231.833v-8.205c19.154,2.471,37.744,8.287,52.532,16.924
	c38.187,22.304,103.301,26.928,135.241,1.981l3.201-2.321c32.804-25.622,97.472-22.248,136.145,0.339
	C391.376,250.737,456.055,253.066,488.054,228.257z"/>
<path style="fill:#5B7F81;" d="M192.713,286.813c16.874-5.43,35.943,1.458,45.144,17.448l15.975,27.764
	c10.588,18.408,4.247,42.156-14.096,52.781c-18.344,10.629-42.012,4.265-52.604-14.139l-15.978-27.77
	c-8.987-15.619-5.774-35.089,6.618-47.118L192.713,286.813z"/>
<path d="M498.755,503.286c0,4.813-3.899,8.714-8.709,8.714H21.954c-4.81,0-8.709-3.902-8.709-8.714s3.899-8.714,8.709-8.714h468.092
	C494.857,494.573,498.755,498.473,498.755,503.286z M381.726,332.281h2.203c4.81,0,8.709-3.902,8.709-8.714
	s-3.898-8.714-8.709-8.714h-2.203c-4.81,0-8.709,3.902-8.709,8.714S376.916,332.281,381.726,332.281z M104.748,284.791h-2.203
	c-4.81,0-8.709,3.902-8.709,8.714s3.898,8.714,8.709,8.714h2.203c4.81,0,8.709-3.902,8.709-8.714
	C113.456,288.693,109.557,284.791,104.748,284.791z M318.708,386.798h2.203c4.81,0,8.709-3.902,8.709-8.714
	s-3.899-8.714-8.709-8.714h-2.203c-4.809,0-8.709,3.902-8.709,8.714S313.898,386.798,318.708,386.798z M300.636,289.717h2.203
	c4.81,0,8.709-3.902,8.709-8.714c0-4.813-3.898-8.714-8.709-8.714h-2.203c-4.81,0-8.709,3.902-8.709,8.714
	S295.827,289.717,300.636,289.717z M15.69,13.073c-2.398-4.181-0.952-9.515,3.228-11.914c4.18-2.398,9.515-0.954,11.914,3.228
	l74.207,129.362h383.186c4.821,0,8.728,3.908,8.728,8.728v77.275c0,63.995-25.007,124.331-70.414,169.894
	c-45.415,45.57-105.562,70.667-169.359,70.667s-123.942-25.097-169.359-70.667c-45.408-45.563-70.415-105.899-70.415-169.894
	v-77.275c0-4.82,3.907-8.728,8.728-8.728h58.78L15.69,13.073z M115.053,151.205l72.723,126.775
	c5.039-1.767,10.371-2.706,15.724-2.706c17.05,0,32.909,9.12,41.386,23.801l16.154,27.98c6.343,10.99,8.018,23.829,4.718,36.155
	c-3.301,12.328-11.172,22.611-22.162,28.954c-7.203,4.159-15.408,6.359-23.726,6.359c-17.052,0-32.91-9.12-41.385-23.801
	l-16.157-27.983c-11.651-20.185-6.801-45.431,10.318-60.052L94.927,151.205H34.863v68.546c0,123.021,99.731,223.104,222.318,223.104
	s222.318-100.084,222.318-223.104v-68.546H115.053z M177.444,338.008L193.6,365.99c5.368,9.297,15.433,15.073,26.268,15.073
	c5.258,0,10.443-1.39,14.997-4.02c6.952-4.012,11.934-10.53,14.029-18.351c2.095-7.823,1.039-15.959-2.974-22.911l-16.153-27.977
	c-5.369-9.297-15.435-15.073-26.269-15.073c-4.823,0-9.627,1.179-13.891,3.411c-0.361,0.189-0.718,0.382-1.068,0.586
	C174.081,305.073,169.119,323.584,177.444,338.008z"/>
<g>
</g>
<g>
</g>
<g>
</g>
<g>
</g>
<g>
</g>
<g>
</g>
<g>
</g>
<g>
</g>
<g>
</g>
<g>
</g>
<g>
</g>
<g>
</g>
<g>
</g>
<g>
</g>
<g>
</g>
</svg>
